<?xml version="1.0" standalone="yes"?><!DOCTYPE svg PUBLIC "-//W3C//DTD SVG 1.1//EN" "http://www.w3.org/Graphics/SVG/1.1/DTD/svg11.dtd"[
<!ENTITY E25 'matrix(1.00 0.00 0.00 1.00 84.00 4.00 ) '><!ENTITY E9 'matrix(1.00 0.00 0.00 1.00 0.00 0.00 ) '><!ENTITY E5 'stroke:none;opacity:1;fill:rgb(155,91,179);'><!ENTITY E6 'M 15.011 14.916 15.15146 23.9388 M 23.14376 10.5618 15.01096 14.9158 6.97086 10.5618 M 6.924747 10.5618 15.15145 5.893101 23.14375 10.5618 23.14375 19.2433 15.15145 23.9386 6.924747 19.2433 z '><!ENTITY E16 'stroke:none;fill-rule:evenodd;opacity:1;fill:rgb(255,255,255);'><!ENTITY E3 'stroke:rgb(169,169,169);fill:none;stroke-linecap:butt;stroke-miterlimit:9;opacity:1;stroke-width:2;stroke-linejoin:miter;'><!ENTITY E7 'stroke:rgb(255,255,255);fill:none;stroke-linecap:butt;stroke-miterlimit:9;opacity:1;stroke-width:2;stroke-linejoin:miter;'><!ENTITY E1 'stroke:rgb(169,169,169);fill:none;stroke-linecap:butt;stroke-miterlimit:9;opacity:1;stroke-width:1;stroke-linejoin:miter;'><!ENTITY E39 'matrix(1.00 0.00 0.00 1.00 4.00 4.00 ) '><!ENTITY E20 'matrix(1.00 0.00 0.00 1.00 164.00 4.00 ) '><!ENTITY E34 'matrix(1.00 0.00 0.00 1.00 84.00 84.00 ) '><!ENTITY E10 'matrix(1.00 0.00 0.00 1.00 324.00 4.00 ) '><!ENTITY E13 'matrix(1.00 0.00 0.00 1.00 244.00 4.00 ) '><!ENTITY E35 'stroke:none;opacity:1;fill:rgb(91,178,126);'><!ENTITY E2 'M 10.158 33.2 C 3.4054 31.7591 -1.861 26.4692 -3.271 19.71 '><!ENTITY E4 'matrix(1.00 0.00 0.00 1.00 404.00 4.00 ) '><!ENTITY E21 'stroke:none;opacity:1;fill:rgb(238,192,75);'><!ENTITY E33 'M 31.179 5.2 C 34.9985 11.0918 34.9814 18.682 31.13552 24.557 '>
]><svg width="462.8019" height="132.8252" id="SvgGdi_output" xmlns="http://www.w3.org/2000/svg" xmlns:xlink="http://www.w3.org/1999/xlink"><rect id="background" height="100.00%" style="fill:rgb(255,255,255);" width="100.00%" y="0.00" x="0.00" /><g style="shape-rendering:auto;" id="root_group"><line y1="19.00" style="&E1;" id="178" x2="400.00" y2="19.00" x1="358.00" /><line y1="19.00" style="&E1;" id="179" x2="320.00" y2="19.00" x1="278.00" /><line y1="19.00" style="&E1;" id="180" x2="240.00" y2="19.00" x1="198.00" /><line y1="19.00" style="&E1;" id="181" x2="160.00" y2="19.00" x1="118.00" /><line y1="99.00" style="&E1;" id="182" x2="160.00" y2="19.00" x1="118.00" /><line y1="19.00" style="&E1;" id="183" x2="80.00" y2="19.00" x1="38.00" /><path d="&E2;" style="&E3;" transform="&E4;" id="184" /><ellipse id="185" cy="15.00" cx="15.00" transform="&E4;" rx="15.00" ry="15.00" style="&E5;" /><path d="&E6;" style="&E7;" transform="&E4;" id="186" /><text id="187" transform="&E9;" x="404.00px" y="39.00px" style="stroke:none;clip-path:url(#189_text_clipper);font-family:Microsoft Sans Serif;fill:rgb(0,0,0);font-size:8.25pt;opacity:1;"><tspan dy="8.25pt" id="191">DrawMesh</tspan></text><path d="&E2;" style="&E3;" transform="&E10;" id="193" /><ellipse id="194" cy="15.00" cx="15.00" transform="&E10;" rx="15.00" ry="15.00" style="&E5;" /><path d="&E6;" style="&E7;" transform="&E10;" id="195" /><text id="196" transform="&E9;" x="324.00px" y="39.00px" style="stroke:none;clip-path:url(#198_text_clipper);font-family:Microsoft Sans Serif;fill:rgb(0,0,0);font-size:8.25pt;opacity:1;"><tspan dy="8.25pt" id="200">Update</tspan></text><text id="202" transform="&E9;" x="324.00px" y="51.45px" style="stroke:none;clip-path:url(#204_text_clipper);font-family:Microsoft Sans Serif;fill:rgb(0,0,0);font-size:8.25pt;opacity:1;"><tspan dy="8.25pt" id="206">Uniform</tspan></text><ellipse id="208" cy="15.00" cx="15.00" transform="&E13;" rx="15.00" ry="15.00" style="stroke:none;opacity:1;fill:rgb(68,154,223);" /><path style="&E16;" transform="&E13;" id="209" d="M 19.156 13.888 19.156 10.3647 19.156 6.841399 25.2585 10.3647 22.2072 12.1264 z " /><path style="&E16;" transform="&E13;" id="210" d="M 19.156 22.97 19.156 19.4467 19.156 15.9234 25.2585 19.4467 22.2072 21.2084 z " /><path style="&E7;" transform="&E13;" id="211" d="M 5.5001 19.484 10.6493 19.484 16.2743 10.2485 19.3728 10.2485 M 14.6769 17.1481 16.3089 19.4828 19.2202 19.4828 M 5.500199 10.2437 10.7586 10.2437 12.1652 12.8707 " /><text id="212" transform="&E9;" x="244.00px" y="39.00px" style="stroke:none;clip-path:url(#214_text_clipper);font-family:Microsoft Sans Serif;fill:rgb(0,0,0);font-size:8.25pt;opacity:1;"><tspan dy="8.25pt" id="216">Item2</tspan></text><ellipse id="218" cy="15.00" cx="15.00" transform="&E20;" rx="15.00" ry="15.00" style="&E21;" /><path style="&E16;" transform="&E20;" id="219" d="M 12.246 6.0137 12.246 6.019559 C 12.05806 6.020259 11.89471 6.040434 11.76748 6.066434 10.86869 6.352735 10.89631 6.934374 9.87688 7.685534 8.863379 8.264335 8.35338 7.819914 7.61518 8.419914 6.87845 9.015514 7.39292 10.38251 7.08393 10.64841 6.77722 11.18001 5.82553 11.65471 5.65233 12.32611 5.50916 13.18481 6.04191 13.79701 6.02147 14.53311 6.08287 15.14641 5.41127 15.49489 5.5078 15.99211 5.79702 16.80421 6.35438 17.29221 6.6172 17.51751 6.663351 17.54951 6.700028 17.5985 6.714856 17.6015 6.790713 17.792 6.858586 17.98645 6.955086 18.16595 6.949606 18.13995 6.948576 18.11382 6.943367 18.08782 6.998228 18.30542 7.055077 18.52401 7.132816 18.73821 8.683116 22.09901 12.81412 24.68611 17.34182 24.11711 19.54102 23.84771 22.82442 22.33171 24.16602 18.73821 23.22044 19.58671 21.53152 20.32421 20.77732 20.38081 23.33002 19.10511 24.70712 16.93741 24.32031 13.97461 23.79154 15.23341 23.09341 16.20131 22.22071 16.86521 24.07451 13.97551 23.75691 12.48131 22.38478 10.83981 23.36615 13.53881 22.09719 16.53431 19.33208 18.66401 20.45238 18.78541 21.51657 18.51614 22.50198 17.71284 21.01318 19.37354 19.14968 20.20834 17.01368 20.43554 18.03358 21.30254 19.01818 21.69454 19.95898 21.52734 17.34458 22.24884 15.15478 21.45428 12.49018 18.80074 12.3507 19.51504 13.10514 20.62754 13.88278 21.33784 9.373278 19.38284 8.976177 13.29584 14.46872 11.79294 14.47202 11.79294 14.47518 11.79384 14.47848 11.79294 17.74978 13.70674 21.86528 13.58084 22.05078 12.34372 22.50885 10.86082 19.96508 7.805223 16.16208 7.007823 15.4618 6.871123 14.79228 6.817344 14.15428 6.835943 14.16706 6.835943 14.17858 6.836182 14.19139 6.826178 13.58399 6.177278 12.80989 6.011678 12.24609 6.013678 z M 17.17769 9.046878 C 17.72373 9.046878 18.22259 9.543848 18.22259 10.08988 18.22259 10.63598 17.72371 11.13288 17.17769 11.13288 16.63165 11.13288 16.13469 10.63601 16.13469 10.08988 16.13474 9.543879 16.63162 9.046778 17.17769 9.046878 z " /><text id="220" transform="&E9;" x="164.00px" y="39.00px" style="stroke:none;clip-path:url(#222_text_clipper);font-family:Microsoft Sans Serif;fill:rgb(0,0,0);font-size:8.25pt;opacity:1;"><tspan dy="8.25pt" id="224">WithLatest</tspan></text><text id="226" transform="&E9;" x="164.00px" y="51.45px" style="stroke:none;clip-path:url(#228_text_clipper);font-family:Microsoft Sans Serif;fill:rgb(0,0,0);font-size:8.25pt;opacity:1;"><tspan dy="8.25pt" id="230">From</tspan></text><ellipse id="232" cy="15.00" cx="15.00" transform="&E25;" rx="15.00" ry="15.00" style="&E21;" /><path style="&E3;" transform="&E25;" id="233" d="M 1.5363 7.8 C 1.99103 6.9385 2.52798 6.1205 3.1403 5.3587 3.7527 4.5967 4.4403 3.8909 5.1968 3.254 5.95315 2.617 6.7782 2.049 7.665299 1.5627 M 0.4537992 19.4997 C 0.1435492 18.4956 -0.05714077 17.4835 -0.1564507 16.4769 -0.2551987 15.4701 -0.2516447 14.4684 -0.1525816 13.4844 -0.05334165 12.5007 0.1414284 11.5347 0.4251484 10.5993 M 7.892348 28.3993 C 7.030958 27.9447 6.212848 27.4077 5.450948 26.7954 4.689008 26.1831 3.983248 25.4954 3.346348 24.739 2.709558 23.9826 2.141548 23.1575 1.655148 22.2704 M 19.49415 29.4993 C 18.48995 29.8096 17.47785 30.0103 16.47125 30.1096 15.46445 30.2084 14.46285 30.2049 13.47895 30.1018 12.49507 30.0028 11.52915 29.8079 10.59365 29.5242 M 28.46365 22.0993 C 28.00892 22.9606 27.472 23.7788 26.85965 24.5407 26.24738 25.3026 25.55945 26.0084 24.80315 26.6453 24.0468 27.2822 23.22175 27.8502 22.33465 28.3365 M 29.54565 10.4995 C 29.85594 11.5037 30.05659 12.5157 30.15594 13.5224 30.25481 14.5292 30.25114 15.531 30.15199 16.5147 30.05279 17.4986 29.85802 18.4646 29.5743 19.4 M 22.10769 1.499998 C 22.96908 1.954698 23.7872 2.491698 24.5491 3.103898 25.31104 3.716298 26.0168 4.404098 26.65369 5.160398 27.29052 5.916898 27.85859 6.741898 28.34499 7.629098 M 10.50499 0.3999977 C 11.50919 0.08969772 12.52109 -0.1109023 13.52779 -0.2103023 14.53469 -0.3090023 15.53619 -0.3055023 16.52009 -0.2103023 17.50401 -0.1111023 18.46999 0.08369771 19.40549 0.3673977 " /><path style="&E7;" transform="&E25;" id="234" d="M 19.269 20.099 C 19.269 22.4871 17.3331 24.4238 14.9451 24.4238 12.5561 24.4238 10.6203 22.487 10.6203 20.099 10.6203 17.7109 12.5562 15.7751 14.9451 15.7751 17.3332 15.7751 19.269 17.711 19.269 20.099 z " /><path style="&E16;" transform="&E25;" id="235" d="M 16.975 3.0248 C 16.73886 3.06546 16.51242 3.21251 16.34286 3.49717 15.6852 4.60047 14.77066 5.80307 14.35576 7.13567 13.92228 6.64929 13.54155 6.15081 13.6769 5.99947 14.54394 5.03396 13.22386 3.50617 12.3577 4.47067 11.36065 5.58137 11.58498 7.02467 12.50337 8.11237 13.35954 9.126869 14.12797 9.595369 14.22117 11.09017 13.71315 10.73458 13.23687 10.31038 12.67657 10.05927 12.01987 9.76308 10.16017 9.93013 9.818172 9.16561 9.266643 7.92891 7.657972 9.020451 8.210373 10.25711 8.769353 11.51011 9.959173 11.68241 11.05227 11.84021 12.21977 12.00775 13.06457 12.86311 14.09207 13.40411 14.02969 13.91396 13.95819 14.42471 13.91067 14.91691 13.77569 16.29881 15.64077 16.28731 15.77407 14.91691 15.90887 13.52981 16.18661 11.99041 16.06815 10.55711 18.20435 10.63938 21.03795 9.132412 21.83435 6.778212 22.27408 5.481912 20.47085 4.919911 20.03685 6.203712 19.77931 6.961502 18.99005 7.335611 18.40705 7.665512 17.62234 8.110412 16.88755 8.419831 16.02415 8.390021 16.08245 7.746341 16.39576 7.206521 16.71401 6.663321 17.12145 5.968041 17.53757 5.280221 17.95081 4.588721 18.46445 3.727551 17.68355 2.902821 16.97512 3.024821 z " /><ellipse id="236" cy="19.52" cx="16.06" transform="&E25;" rx="0.60" ry="0.60" style="stroke:none;opacity:1;fill:rgb(255,255,255);" /><ellipse id="237" cy="19.52" cx="16.06" transform="&E25;" rx="0.60" ry="0.60" style="stroke:rgb(255,255,255);fill:none;stroke-linecap:butt;stroke-miterlimit:9;opacity:1;stroke-width:1.8061;stroke-linejoin:miter;" /><text id="238" transform="&E9;" x="84.00px" y="39.00px" style="stroke:none;clip-path:url(#240_text_clipper);font-family:Microsoft Sans Serif;fill:rgb(0,0,0);font-size:8.25pt;opacity:1;"><tspan dy="8.25pt" id="242">Normalized</tspan></text><text id="244" transform="&E9;" x="84.00px" y="51.45px" style="stroke:none;clip-path:url(#246_text_clipper);font-family:Microsoft Sans Serif;fill:rgb(0,0,0);font-size:8.25pt;opacity:1;"><tspan dy="8.25pt" id="248">View</tspan></text><path d="&E33;" style="&E3;" transform="&E34;" id="250" /><ellipse id="251" cy="15.00" cx="15.00" transform="&E34;" rx="15.00" ry="15.00" style="&E35;" /><path style="&E16;" transform="&E34;" id="252" d="M 4.4028 13 4.93347 11.3266 C 6.15637 11.7667 7.04467 12.1477 7.598371 12.4698 7.45224 11.0476 7.37533 10.0696 7.36764 9.5352 L 9.040441 9.5352 C 9.017365 10.3131 8.92891 11.2873 8.775101 12.4581 9.567261 12.0495 10.4748 11.6723 11.4977 11.3266 L 12.02837 13 C 11.05162 13.3302 10.09407 13.5502 9.155771 13.6601 9.624911 14.0766 10.28637 14.819 11.14007 15.8877 L 9.755671 16.8894 C 9.30959 16.2687 8.782761 15.4241 8.175171 14.3554 7.606041 15.4633 7.106171 16.308 6.675471 16.8894 L 5.314171 15.8877 C 6.206311 14.7642 6.844671 14.0216 7.229171 13.6601 6.237041 13.4637 5.294871 13.2437 4.402771 13 z " /><path style="&E16;" transform="&E34;" id="253" d="M 11.656 8.2 11.99975 8.7 16.31225 14.7937 11.65605 21.4187 11.28105 21.9187 14.74985 21.9187 14.8436 21.7624 17.9998 17.0124 18.46855 17.7 21.15605 21.7624 21.2498 21.9187 24.7498 21.9187 24.40605 21.4187 19.65605 14.6687 24.06225 8.699997 24.406 8.199997 20.9998 8.199997 20.90605 8.324997 18.68725 11.4187 C 18.46251 11.7285 18.22333 12.1062 17.9685 12.4812 17.77046 12.1547 17.58677 11.8424 17.31225 11.4187 L 15.28105 8.356197 15.1873 8.199997 11.6561 8.199997 z " /><text id="254" transform="&E9;" x="84.00px" y="119.00px" style="stroke:none;clip-path:url(#256_text_clipper);font-family:Microsoft Sans Serif;fill:rgb(0,0,0);font-size:8.25pt;opacity:1;"><tspan dy="8.25pt" id="258">CurColor</tspan></text><path d="&E33;" style="&E3;" transform="&E39;" id="260" /><ellipse id="261" cy="15.00" cx="15.00" transform="&E39;" rx="15.00" ry="15.00" style="&E35;" /><path d="&E6;" style="&E7;" transform="&E39;" id="262" /><text id="263" transform="&E9;" x="4.00px" y="39.00px" style="stroke:none;clip-path:url(#265_text_clipper);font-family:Microsoft Sans Serif;fill:rgb(0,0,0);font-size:8.25pt;opacity:1;"><tspan dy="8.25pt" id="267">RenderFrame</tspan></text></g><defs id="clips_hatches_and_gradients"><clipPath id="189_text_clipper"><rect x="404.00" y="39.00" width="57.80" height="13.83" id="190" /></clipPath><clipPath id="198_text_clipper"><rect x="324.00" y="39.00" width="43.39" height="27.65" id="199" /></clipPath><clipPath id="204_text_clipper"><rect x="324.00" y="51.45" width="43.39" height="27.65" id="205" /></clipPath><clipPath id="214_text_clipper"><rect x="244.00" y="39.00" width="32.00" height="13.83" id="215" /></clipPath><clipPath id="222_text_clipper"><rect x="164.00" y="39.00" width="57.25" height="27.65" id="223" /></clipPath><clipPath id="228_text_clipper"><rect x="164.00" y="51.45" width="57.25" height="27.65" id="229" /></clipPath><clipPath id="240_text_clipper"><rect x="84.00" y="39.00" width="61.09" height="27.65" id="241" /></clipPath><clipPath id="246_text_clipper"><rect x="84.00" y="51.45" width="61.09" height="27.65" id="247" /></clipPath><clipPath id="256_text_clipper"><rect x="84.00" y="119.00" width="49.05" height="13.83" id="257" /></clipPath><clipPath id="265_text_clipper"><rect x="4.00" y="39.00" width="73.55" height="13.83" id="266" /></clipPath></defs></svg>