<?xml version="1.0" standalone="yes"?><!DOCTYPE svg PUBLIC "-//W3C//DTD SVG 1.1//EN" "http://www.w3.org/Graphics/SVG/1.1/DTD/svg11.dtd"[
<!ENTITY E15 'stroke:none;opacity:1;fill:rgb(68,154,223);'><!ENTITY E35 'matrix(1.00 0.00 0.00 1.00 564.00 4.00 ) '><!ENTITY E56 'matrix(1.00 0.00 0.00 1.00 84.00 4.00 ) '><!ENTITY E45 'matrix(1.00 0.00 0.00 1.00 404.00 4.00 ) '><!ENTITY E13 'matrix(1.00 0.00 0.00 1.00 0.00 0.00 ) '><!ENTITY E4 'matrix(1.00 0.00 0.00 1.00 884.00 4.00 ) '><!ENTITY E33 'matrix(1.00 0.00 0.00 1.00 644.00 164.00 ) '><!ENTITY E9 'stroke:rgb(255,255,255);fill:none;stroke-linecap:butt;stroke-miterlimit:9;opacity:1;stroke-width:1.2496;stroke-linejoin:miter;'><!ENTITY E7 'stroke:none;fill-rule:evenodd;opacity:1;fill:rgb(255,255,255);'><!ENTITY E3 'stroke:rgb(169,169,169);fill:none;stroke-linecap:butt;stroke-miterlimit:9;opacity:1;stroke-width:2;stroke-linejoin:miter;'><!ENTITY E54 'matrix(1.00 0.00 0.00 1.00 164.00 4.00 ) '><!ENTITY E16 'M 10.824 9.4752 3.5613 15.0588 10.824 20.6107 10.81521 18.3247 6.519011 15.0267 10.82391 11.7422 z '><!ENTITY E29 'stroke:rgb(255,255,255);fill:none;stroke-linecap:butt;stroke-miterlimit:9;opacity:1;stroke-width:2;stroke-linejoin:miter;'><!ENTITY E1 'stroke:rgb(169,169,169);fill:none;stroke-linecap:butt;stroke-miterlimit:9;opacity:1;stroke-width:1;stroke-linejoin:miter;'><!ENTITY E31 'matrix(1.00 0.00 0.00 1.00 644.00 84.00 ) '><!ENTITY E41 'matrix(1.00 0.00 0.00 1.00 484.00 4.00 ) '><!ENTITY E24 'stroke:none;opacity:1;fill:rgb(255,255,255);'><!ENTITY E17 'M 15.365 7.2336 C 15.34647 7.33547 15.32125 7.4371 15.31422 7.5375 14.41077 12.6441 13.49692 17.7495 12.59942 22.8575 12.59508 22.88635 12.6018 22.91223 12.59942 22.94062 L 14.62872 22.94062 C 14.70348 22.53324 14.73679 22.1026 14.8377 21.71462 15.68204 16.94102 16.5365 12.17012 17.3748 7.394619 17.38163 7.340435 17.37866 7.287239 17.3787 7.233579 z '><!ENTITY E59 'matrix(1.00 0.00 0.00 1.00 4.00 4.00 ) '><!ENTITY E49 'matrix(1.00 0.00 0.00 1.00 324.00 4.00 ) '><!ENTITY E52 'matrix(1.00 0.00 0.00 1.00 244.00 4.00 ) '><!ENTITY E46 'M 18.422 13 13.4357 18.5006 10.8556 15.9868 6.500101 20.5001 23.9571 20.48582 z '><!ENTITY E39 'matrix(1.00 0.00 0.00 1.00 564.00 164.00 ) '><!ENTITY E22 'stroke:none;opacity:1;fill:rgb(238,192,75);'><!ENTITY E37 'matrix(1.00 0.00 0.00 1.00 564.00 84.00 ) '><!ENTITY E27 'matrix(1.00 0.00 0.00 1.00 644.00 4.00 ) '><!ENTITY E18 'M 19.044 9.4746 26.3067 15.0582 19.044 20.6101 19.05279 18.3241 23.34899 15.0261 19.04409 11.7416 z '><!ENTITY E21 'matrix(1.00 0.00 0.00 1.00 724.00 4.00 ) '><!ENTITY E28 'M 20.824 23.115 20.824 7.098999 M 17.3572 17.48 17.3572 12.7339 M 13.8904 21.2046 13.8904 9.009602 M 10.4236 18.6248 10.4236 11.5896 M 6.9568 16.3923 6.9568 13.822 '><!ENTITY E14 'matrix(1.00 0.00 0.00 1.00 804.00 4.00 ) '>
]><svg width="932.1779" height="212.8252" id="SvgGdi_output" xmlns="http://www.w3.org/2000/svg" xmlns:xlink="http://www.w3.org/1999/xlink"><rect id="background" height="100.00%" style="fill:rgb(255,255,255);" width="100.00%" y="0.00" x="0.00" /><g style="shape-rendering:auto;" id="root_group"><line y1="19.00" style="&E1;" id="98" x2="880.00" y2="19.00" x1="838.00" /><line y1="19.00" style="&E1;" id="99" x2="800.00" y2="19.00" x1="758.00" /><line y1="19.00" style="&E1;" id="100" x2="720.00" y2="19.00" x1="678.00" /><line y1="99.00" style="&E1;" id="101" x2="720.00" y2="19.00" x1="678.00" /><line y1="179.00" style="&E1;" id="102" x2="720.00" y2="19.00" x1="678.00" /><line y1="19.00" style="&E1;" id="103" x2="640.00" y2="19.00" x1="598.00" /><line y1="99.00" style="&E1;" id="104" x2="640.00" y2="99.00" x1="598.00" /><line y1="179.00" style="&E1;" id="105" x2="640.00" y2="179.00" x1="598.00" /><line y1="19.00" style="&E1;" id="106" x2="560.00" y2="19.00" x1="518.00" /><line y1="19.00" style="&E1;" id="107" x2="560.00" y2="99.00" x1="518.00" /><line y1="19.00" style="&E1;" id="108" x2="560.00" y2="179.00" x1="518.00" /><line y1="19.00" style="&E1;" id="109" x2="480.00" y2="19.00" x1="438.00" /><line y1="19.00" style="&E1;" id="110" x2="400.00" y2="19.00" x1="358.00" /><line y1="19.00" style="&E1;" id="111" x2="320.00" y2="19.00" x1="278.00" /><line y1="19.00" style="&E1;" id="112" x2="240.00" y2="19.00" x1="198.00" /><line y1="19.00" style="&E1;" id="113" x2="160.00" y2="19.00" x1="118.00" /><line y1="19.00" style="&E1;" id="114" x2="80.00" y2="19.00" x1="38.00" /><path style="&E3;" transform="&E4;" id="115" d="M 10.158 33.2 C 3.4054 31.7591 -1.861 26.4692 -3.271 19.71 " /><ellipse id="116" cy="15.00" cx="15.00" transform="&E4;" rx="15.00" ry="15.00" style="stroke:none;opacity:1;fill:rgb(155,91,179);" /><path style="&E7;" transform="&E4;" id="117" d="M 11.656 8.2 11.99975 8.7 16.31225 14.7937 11.65605 21.4187 11.28105 21.9187 14.74985 21.9187 14.8436 21.7624 17.9998 17.0124 18.46855 17.7 21.15605 21.7624 21.2498 21.9187 24.7498 21.9187 24.40605 21.4187 19.65605 14.6687 24.06225 8.699997 24.406 8.199997 20.9998 8.199997 20.90605 8.324997 18.68725 11.4187 C 18.46251 11.7285 18.22333 12.1062 17.9685 12.4812 17.77046 12.1547 17.58677 11.8424 17.31225 11.4187 L 15.28105 8.356197 15.1873 8.199997 11.6561 8.199997 z " /><path style="&E9;" transform="&E4;" id="118" d="M 7.8593 10.494 8.8954 9.65137 13.0189 14.72177 11.9886 15.5597 " /><path style="&E9;" transform="&E4;" id="119" d="M 5.1002 16.975 7.6877 14.8707 " /><path style="&E7;" transform="&E4;" id="120" d="M 8.8501 16.342 6.484699 13.4335 10.1863 12.8393 9.518199 14.5907 z " /><text id="121" transform="&E13;" x="884.00px" y="39.00px" style="stroke:none;clip-path:url(#123_text_clipper);font-family:Microsoft Sans Serif;fill:rgb(0,0,0);font-size:8.25pt;opacity:1;"><tspan dy="8.25pt" id="125">Tracking</tspan></text><ellipse id="127" cy="15.00" cx="15.00" transform="&E14;" rx="15.00" ry="15.00" style="&E15;" /><path d="&E16;" style="&E7;" transform="&E14;" id="128" /><path d="&E17;" style="&E7;" transform="&E14;" id="129" /><path d="&E18;" style="&E7;" transform="&E14;" id="130" /><text id="131" transform="&E13;" x="804.00px" y="39.00px" style="stroke:none;clip-path:url(#133_text_clipper);font-family:Microsoft Sans Serif;fill:rgb(0,0,0);font-size:8.25pt;opacity:1;"><tspan dy="8.25pt" id="135">Expression</tspan></text><text id="137" transform="&E13;" x="804.00px" y="51.45px" style="stroke:none;clip-path:url(#139_text_clipper);font-family:Microsoft Sans Serif;fill:rgb(0,0,0);font-size:8.25pt;opacity:1;"><tspan dy="8.25pt" id="141">Transform</tspan></text><ellipse id="143" cy="15.00" cx="15.00" transform="&E21;" rx="15.00" ry="15.00" style="&E22;" /><path style="&E7;" transform="&E21;" id="144" d="M 12.246 6.0137 12.246 6.019559 C 12.05806 6.020259 11.89471 6.040434 11.76748 6.066434 10.86869 6.352735 10.89631 6.934374 9.87688 7.685534 8.863379 8.264335 8.35338 7.819914 7.61518 8.419914 6.87845 9.015514 7.39292 10.38251 7.08393 10.64841 6.77722 11.18001 5.82553 11.65471 5.65233 12.32611 5.50916 13.18481 6.04191 13.79701 6.02147 14.53311 6.08287 15.14641 5.41127 15.49489 5.5078 15.99211 5.79702 16.80421 6.35438 17.29221 6.6172 17.51751 6.663351 17.54951 6.700028 17.5985 6.714856 17.6015 6.790713 17.792 6.858586 17.98645 6.955086 18.16595 6.949606 18.13995 6.948576 18.11382 6.943367 18.08782 6.998228 18.30542 7.055077 18.52401 7.132816 18.73821 8.683116 22.09901 12.81412 24.68611 17.34182 24.11711 19.54102 23.84771 22.82442 22.33171 24.16602 18.73821 23.22044 19.58671 21.53152 20.32421 20.77732 20.38081 23.33002 19.10511 24.70712 16.93741 24.32031 13.97461 23.79154 15.23341 23.09341 16.20131 22.22071 16.86521 24.07451 13.97551 23.75691 12.48131 22.38478 10.83981 23.36615 13.53881 22.09719 16.53431 19.33208 18.66401 20.45238 18.78541 21.51657 18.51614 22.50198 17.71284 21.01318 19.37354 19.14968 20.20834 17.01368 20.43554 18.03358 21.30254 19.01818 21.69454 19.95898 21.52734 17.34458 22.24884 15.15478 21.45428 12.49018 18.80074 12.3507 19.51504 13.10514 20.62754 13.88278 21.33784 9.373278 19.38284 8.976177 13.29584 14.46872 11.79294 14.47202 11.79294 14.47518 11.79384 14.47848 11.79294 17.74978 13.70674 21.86528 13.58084 22.05078 12.34372 22.50885 10.86082 19.96508 7.805223 16.16208 7.007823 15.4618 6.871123 14.79228 6.817344 14.15428 6.835943 14.16706 6.835943 14.17858 6.836182 14.19139 6.826178 13.58399 6.177278 12.80989 6.011678 12.24609 6.013678 z M 17.17769 9.046878 C 17.72373 9.046878 18.22259 9.543848 18.22259 10.08988 18.22259 10.63598 17.72371 11.13288 17.17769 11.13288 16.63165 11.13288 16.13469 10.63601 16.13469 10.08988 16.13474 9.543879 16.63162 9.046778 17.17769 9.046878 z " /><ellipse id="145" cy="19.00" cx="724.00" rx="3.00" ry="3.00" style="&E3;" /><ellipse id="146" cy="19.00" cx="724.00" rx="3.00" ry="3.00" style="&E24;" /><text id="147" transform="&E13;" x="724.00px" y="39.00px" style="stroke:none;clip-path:url(#149_text_clipper);font-family:Microsoft Sans Serif;fill:rgb(0,0,0);font-size:8.25pt;opacity:1;"><tspan dy="8.25pt" id="151">Combine</tspan></text><text id="153" transform="&E13;" x="724.00px" y="51.45px" style="stroke:none;clip-path:url(#155_text_clipper);font-family:Microsoft Sans Serif;fill:rgb(0,0,0);font-size:8.25pt;opacity:1;"><tspan dy="8.25pt" id="157">Latest</tspan></text><ellipse id="159" cy="15.00" cx="15.00" transform="&E27;" rx="15.00" ry="15.00" style="&E15;" /><path d="&E28;" style="&E29;" transform="&E27;" id="160" /><text id="161" transform="&E13;" x="644.00px" y="39.00px" style="stroke:none;clip-path:url(#163_text_clipper);font-family:Microsoft Sans Serif;fill:rgb(0,0,0);font-size:8.25pt;opacity:1;"><tspan dy="8.25pt" id="165">Rescale</tspan></text><ellipse id="167" cy="15.00" cx="15.00" transform="&E31;" rx="15.00" ry="15.00" style="&E15;" /><path d="&E28;" style="&E29;" transform="&E31;" id="168" /><text id="169" transform="&E13;" x="644.00px" y="119.00px" style="stroke:none;clip-path:url(#171_text_clipper);font-family:Microsoft Sans Serif;fill:rgb(0,0,0);font-size:8.25pt;opacity:1;"><tspan dy="8.25pt" id="173">Rescale</tspan></text><ellipse id="175" cy="15.00" cx="15.00" transform="&E33;" rx="15.00" ry="15.00" style="&E15;" /><path d="&E28;" style="&E29;" transform="&E33;" id="176" /><text id="177" transform="&E13;" x="644.00px" y="199.00px" style="stroke:none;clip-path:url(#179_text_clipper);font-family:Microsoft Sans Serif;fill:rgb(0,0,0);font-size:8.25pt;opacity:1;"><tspan dy="8.25pt" id="181">Rescale</tspan></text><ellipse id="183" cy="15.00" cx="15.00" transform="&E35;" rx="15.00" ry="15.00" style="&E15;" /><path d="&E16;" style="&E7;" transform="&E35;" id="184" /><path d="&E17;" style="&E7;" transform="&E35;" id="185" /><path d="&E18;" style="&E7;" transform="&E35;" id="186" /><text id="187" transform="&E13;" x="564.00px" y="39.00px" style="stroke:none;clip-path:url(#189_text_clipper);font-family:Microsoft Sans Serif;fill:rgb(0,0,0);font-size:8.25pt;opacity:1;"><tspan dy="8.25pt" id="191">Distance</tspan></text><ellipse id="193" cy="15.00" cx="15.00" transform="&E37;" rx="15.00" ry="15.00" style="&E15;" /><path d="&E16;" style="&E7;" transform="&E37;" id="194" /><path d="&E17;" style="&E7;" transform="&E37;" id="195" /><path d="&E18;" style="&E7;" transform="&E37;" id="196" /><text id="197" transform="&E13;" x="564.00px" y="119.00px" style="stroke:none;clip-path:url(#199_text_clipper);font-family:Microsoft Sans Serif;fill:rgb(0,0,0);font-size:8.25pt;opacity:1;"><tspan dy="8.25pt" id="201">Lateral</tspan></text><ellipse id="203" cy="15.00" cx="15.00" transform="&E39;" rx="15.00" ry="15.00" style="&E15;" /><path d="&E16;" style="&E7;" transform="&E39;" id="204" /><path d="&E17;" style="&E7;" transform="&E39;" id="205" /><path d="&E18;" style="&E7;" transform="&E39;" id="206" /><text id="207" transform="&E13;" x="564.00px" y="199.00px" style="stroke:none;clip-path:url(#209_text_clipper);font-family:Microsoft Sans Serif;fill:rgb(0,0,0);font-size:8.25pt;opacity:1;"><tspan dy="8.25pt" id="211">Vertical</tspan></text><ellipse id="213" cy="15.00" cx="15.00" transform="&E41;" rx="15.00" ry="15.00" style="&E22;" /><ellipse id="214" cy="15.00" cx="15.00" transform="&E41;" rx="15.00" ry="15.00" style="&E3;" /><path transform="&E41;" id="215" style="stroke:rgb(255,255,255);fill:none;stroke-linecap:butt;stroke-miterlimit:9;opacity:1;stroke-width:2.5;stroke-linejoin:miter;" d="M 11.061 10.763 C 11.061 9.349799 12.2452 7.7226 13.7798 7.4008 15.4144 6.98898 17.2874 7.88198 17.9084 9.4683 18.47393 10.8026 17.97233 12.4332 16.8453 13.3125 16.16579 13.95364 15.1393 14.28144 14.7641 15.2029 14.48171 16.1142 14.56073 17.1532 14.56319 18.0326 " /><ellipse id="216" cy="21.60" cx="14.68" transform="&E41;" rx="1.81" ry="1.81" style="&E24;" /><text id="217" transform="&E13;" x="484.00px" y="39.00px" style="stroke:none;clip-path:url(#219_text_clipper);font-family:Microsoft Sans Serif;fill:rgb(0,0,0);font-size:8.25pt;opacity:1;"><tspan dy="8.25pt" id="221">Condition</tspan></text><ellipse id="223" cy="15.00" cx="15.00" transform="&E45;" rx="15.00" ry="15.00" style="&E15;" /><path d="&E46;" style="&E7;" transform="&E45;" id="224" /><ellipse id="225" cy="10.96" cx="10.92" transform="&E45;" rx="2.75" ry="2.75" style="&E24;" /><text id="226" transform="&E13;" x="404.00px" y="39.00px" style="stroke:none;clip-path:url(#228_text_clipper);font-family:Microsoft Sans Serif;fill:rgb(0,0,0);font-size:8.25pt;opacity:1;"><tspan dy="8.25pt" id="230">SortBinary</tspan></text><text id="232" transform="&E13;" x="404.00px" y="51.45px" style="stroke:none;clip-path:url(#234_text_clipper);font-family:Microsoft Sans Serif;fill:rgb(0,0,0);font-size:8.25pt;opacity:1;"><tspan dy="8.25pt" id="236">Regions</tspan></text><ellipse id="238" cy="15.00" cx="15.00" transform="&E49;" rx="15.00" ry="15.00" style="&E15;" /><path d="&E46;" style="&E7;" transform="&E49;" id="239" /><ellipse id="240" cy="10.96" cx="10.92" transform="&E49;" rx="2.75" ry="2.75" style="&E24;" /><text id="241" transform="&E13;" x="324.00px" y="39.00px" style="stroke:none;clip-path:url(#243_text_clipper);font-family:Microsoft Sans Serif;fill:rgb(0,0,0);font-size:8.25pt;opacity:1;"><tspan dy="8.25pt" id="245">BinaryRegion</tspan></text><text id="247" transform="&E13;" x="324.00px" y="51.45px" style="stroke:none;clip-path:url(#249_text_clipper);font-family:Microsoft Sans Serif;fill:rgb(0,0,0);font-size:8.25pt;opacity:1;"><tspan dy="8.25pt" id="251">Analysis</tspan></text><ellipse id="253" cy="15.00" cx="15.00" transform="&E52;" rx="15.00" ry="15.00" style="&E15;" /><path d="&E46;" style="&E7;" transform="&E52;" id="254" /><ellipse id="255" cy="10.96" cx="10.92" transform="&E52;" rx="2.75" ry="2.75" style="&E24;" /><text id="256" transform="&E13;" x="244.00px" y="39.00px" style="stroke:none;clip-path:url(#258_text_clipper);font-family:Microsoft Sans Serif;fill:rgb(0,0,0);font-size:8.25pt;opacity:1;"><tspan dy="8.25pt" id="260">FindContours</tspan></text><ellipse id="262" cy="15.00" cx="15.00" transform="&E54;" rx="15.00" ry="15.00" style="&E15;" /><path d="&E46;" style="&E7;" transform="&E54;" id="263" /><ellipse id="264" cy="10.96" cx="10.92" transform="&E54;" rx="2.75" ry="2.75" style="&E24;" /><text id="265" transform="&E13;" x="164.00px" y="39.00px" style="stroke:none;clip-path:url(#267_text_clipper);font-family:Microsoft Sans Serif;fill:rgb(0,0,0);font-size:8.25pt;opacity:1;"><tspan dy="8.25pt" id="269">HsvThreshold</tspan></text><ellipse id="271" cy="15.00" cx="15.00" transform="&E56;" rx="15.00" ry="15.00" style="&E15;" /><path d="&E46;" style="&E7;" transform="&E56;" id="272" /><ellipse id="273" cy="10.96" cx="10.92" transform="&E56;" rx="2.75" ry="2.75" style="&E24;" /><text id="274" transform="&E13;" x="84.00px" y="39.00px" style="stroke:none;clip-path:url(#276_text_clipper);font-family:Microsoft Sans Serif;fill:rgb(0,0,0);font-size:8.25pt;opacity:1;"><tspan dy="8.25pt" id="278">ConvertColor</tspan></text><path style="&E3;" transform="&E59;" id="280" d="M 31.179 5.2 C 34.9985 11.0918 34.9814 18.682 31.13552 24.557 " /><ellipse id="281" cy="15.00" cx="15.00" transform="&E59;" rx="15.00" ry="15.00" style="stroke:none;opacity:1;fill:rgb(91,178,126);" /><path style="&E7;" transform="&E59;" id="282" d="M 23.75 9.1 19.5587 11.5211 19.5587 18.3937 23.75 20.8147 z " /><path style="&E7;" transform="&E59;" id="283" d="M 8.6927 9.2 15.7194 9.2 C 17.19 9.2 18.3739 10.4337 18.3739 11.9661 L 18.3739 17.8234 C 18.3739 19.3558 17.19 20.5893 15.7194 20.5893 L 8.692701 20.5893 C 7.222101 20.5893 6.038201 19.3558 6.038201 17.8234 L 6.038201 11.9661 C 6.038201 10.4337 7.222101 9.199999 8.692701 9.199999 z " /><text id="284" transform="&E13;" x="4.00px" y="39.00px" style="stroke:none;clip-path:url(#286_text_clipper);font-family:Microsoft Sans Serif;fill:rgb(0,0,0);font-size:8.25pt;opacity:1;"><tspan dy="8.25pt" id="288">Camera</tspan></text><text id="290" transform="&E13;" x="4.00px" y="51.45px" style="stroke:none;clip-path:url(#292_text_clipper);font-family:Microsoft Sans Serif;fill:rgb(0,0,0);font-size:8.25pt;opacity:1;"><tspan dy="8.25pt" id="294">Capture</tspan></text></g><defs id="clips_hatches_and_gradients"><clipPath id="123_text_clipper"><rect x="884.00" y="39.00" width="47.18" height="13.83" id="124" /></clipPath><clipPath id="133_text_clipper"><rect x="804.00" y="39.00" width="59.78" height="27.65" id="134" /></clipPath><clipPath id="139_text_clipper"><rect x="804.00" y="51.45" width="59.78" height="27.65" id="140" /></clipPath><clipPath id="149_text_clipper"><rect x="724.00" y="39.00" width="49.07" height="27.65" id="150" /></clipPath><clipPath id="155_text_clipper"><rect x="724.00" y="51.45" width="49.07" height="27.65" id="156" /></clipPath><clipPath id="163_text_clipper"><rect x="644.00" y="39.00" width="44.66" height="13.83" id="164" /></clipPath><clipPath id="171_text_clipper"><rect x="644.00" y="119.00" width="44.66" height="13.83" id="172" /></clipPath><clipPath id="179_text_clipper"><rect x="644.00" y="199.00" width="44.66" height="13.83" id="180" /></clipPath><clipPath id="189_text_clipper"><rect x="564.00" y="39.00" width="47.81" height="13.83" id="190" /></clipPath><clipPath id="199_text_clipper"><rect x="564.00" y="119.00" width="38.37" height="13.83" id="200" /></clipPath><clipPath id="209_text_clipper"><rect x="564.00" y="199.00" width="41.58" height="13.83" id="210" /></clipPath><clipPath id="219_text_clipper"><rect x="484.00" y="39.00" width="51.66" height="13.83" id="220" /></clipPath><clipPath id="228_text_clipper"><rect x="404.00" y="39.00" width="56.62" height="27.65" id="229" /></clipPath><clipPath id="234_text_clipper"><rect x="404.00" y="51.45" width="56.62" height="27.65" id="235" /></clipPath><clipPath id="243_text_clipper"><rect x="324.00" y="39.00" width="71.81" height="27.65" id="244" /></clipPath><clipPath id="249_text_clipper"><rect x="324.00" y="51.45" width="71.81" height="27.65" id="250" /></clipPath><clipPath id="258_text_clipper"><rect x="244.00" y="39.00" width="71.74" height="13.83" id="259" /></clipPath><clipPath id="267_text_clipper"><rect x="164.00" y="39.00" width="73.63" height="13.83" id="268" /></clipPath><clipPath id="276_text_clipper"><rect x="84.00" y="39.00" width="70.47" height="13.83" id="277" /></clipPath><clipPath id="286_text_clipper"><rect x="4.00" y="39.00" width="43.97" height="27.65" id="287" /></clipPath><clipPath id="292_text_clipper"><rect x="4.00" y="51.45" width="43.97" height="27.65" id="293" /></clipPath></defs></svg>