<?xml version="1.0" standalone="yes"?><!DOCTYPE svg PUBLIC "-//W3C//DTD SVG 1.1//EN" "http://www.w3.org/Graphics/SVG/1.1/DTD/svg11.dtd"[
<!ENTITY E3 'stroke:rgb(169,169,169);fill:none;stroke-linecap:butt;stroke-miterlimit:9;opacity:1;stroke-width:2;stroke-linejoin:miter;'><!ENTITY E37 'matrix(1.00 0.00 0.00 1.00 244.00 164.00 ) '><!ENTITY E39 'matrix(1.00 0.00 0.00 1.00 164.00 4.00 ) '><!ENTITY E9 'matrix(1.00 0.00 0.00 1.00 0.00 0.00 ) '><!ENTITY E5 'stroke:none;opacity:1;fill:rgb(155,91,179);'><!ENTITY E6 'M 15.011 14.916 15.15146 23.9388 M 23.14376 10.5618 15.01096 14.9158 6.97086 10.5618 M 6.924747 10.5618 15.15145 5.893101 23.14375 10.5618 23.14375 19.2433 15.15145 23.9386 6.924747 19.2433 z '><!ENTITY E12 'stroke:none;fill-rule:evenodd;opacity:1;fill:rgb(255,255,255);'><!ENTITY E57 'matrix(1.00 0.00 0.00 1.00 84.00 164.00 ) '><!ENTITY E4 'matrix(1.00 0.00 0.00 1.00 484.00 4.00 ) '><!ENTITY E30 'matrix(1.00 0.00 0.00 1.00 324.00 164.00 ) '><!ENTITY E28 'M 5.5001 19.484 10.6493 19.484 16.2743 10.2485 19.3728 10.2485 M 14.6769 17.1481 16.3089 19.4828 19.2202 19.4828 M 5.500199 10.2437 10.7586 10.2437 12.1652 12.8707 '><!ENTITY E26 'M 19.156 13.888 19.156 10.3647 19.156 6.841399 25.2585 10.3647 22.2072 12.1264 z '><!ENTITY E27 'M 19.156 22.97 19.156 19.4467 19.156 15.9234 25.2585 19.4467 22.2072 21.2084 z '><!ENTITY E7 'stroke:rgb(255,255,255);fill:none;stroke-linecap:butt;stroke-miterlimit:9;opacity:1;stroke-width:2;stroke-linejoin:miter;'><!ENTITY E1 'stroke:rgb(169,169,169);fill:none;stroke-linecap:butt;stroke-miterlimit:9;opacity:1;stroke-width:1;stroke-linejoin:miter;'><!ENTITY E22 'stroke:none;opacity:1;fill:rgb(68,154,223);'><!ENTITY E48 'matrix(1.00 0.00 0.00 1.00 164.00 164.00 ) '><!ENTITY E62 'matrix(1.00 0.00 0.00 1.00 4.00 4.00 ) '><!ENTITY E50 'matrix(1.00 0.00 0.00 1.00 84.00 4.00 ) '><!ENTITY E25 'matrix(1.00 0.00 0.00 1.00 324.00 4.00 ) '><!ENTITY E32 'matrix(1.00 0.00 0.00 1.00 244.00 4.00 ) '><!ENTITY E11 'M 11.656 8.2 11.99975 8.7 16.31225 14.7937 11.65605 21.4187 11.28105 21.9187 14.74985 21.9187 14.8436 21.7624 17.9998 17.0124 18.46855 17.7 21.15605 21.7624 21.2498 21.9187 24.7498 21.9187 24.40605 21.4187 19.65605 14.6687 24.06225 8.699997 24.406 8.199997 20.9998 8.199997 20.90605 8.324997 18.68725 11.4187 C 18.46251 11.7285 18.22333 12.1062 17.9685 12.4812 17.77046 12.1547 17.58677 11.8424 17.31225 11.4187 L 15.28105 8.356197 15.1873 8.199997 11.6561 8.199997 z '><!ENTITY E42 'matrix(1.00 0.00 0.00 1.00 164.00 84.00 ) '><!ENTITY E10 'matrix(1.00 0.00 0.00 1.00 484.00 164.00 ) '><!ENTITY E2 'M 10.158 33.2 C 3.4054 31.7591 -1.861 26.4692 -3.271 19.71 '><!ENTITY E18 'matrix(1.00 0.00 0.00 1.00 404.00 4.00 ) '><!ENTITY E14 'stroke:rgb(255,255,255);fill:none;stroke-linecap:butt;stroke-miterlimit:9;opacity:1;stroke-width:1.2496;stroke-linejoin:miter;'><!ENTITY E54 'stroke:none;opacity:1;fill:rgb(91,178,126);'><!ENTITY E55 'M 4.4028 13 4.93347 11.3266 C 6.15637 11.7667 7.04467 12.1477 7.598371 12.4698 7.45224 11.0476 7.37533 10.0696 7.36764 9.5352 L 9.040441 9.5352 C 9.017365 10.3131 8.92891 11.2873 8.775101 12.4581 9.567261 12.0495 10.4748 11.6723 11.4977 11.3266 L 12.02837 13 C 11.05162 13.3302 10.09407 13.5502 9.155771 13.6601 9.624911 14.0766 10.28637 14.819 11.14007 15.8877 L 9.755671 16.8894 C 9.30959 16.2687 8.782761 15.4241 8.175171 14.3554 7.606041 15.4633 7.106171 16.308 6.675471 16.8894 L 5.314171 15.8877 C 6.206311 14.7642 6.844671 14.0216 7.229171 13.6601 6.237041 13.4637 5.294871 13.2437 4.402771 13 z '><!ENTITY E53 'matrix(1.00 0.00 0.00 1.00 84.00 84.00 ) '><!ENTITY E21 'matrix(1.00 0.00 0.00 1.00 404.00 164.00 ) '><!ENTITY E23 'M 20.824 23.115 20.824 7.098999 M 17.3572 17.48 17.3572 12.7339 M 13.8904 21.2046 13.8904 9.009602 M 10.4236 18.6248 10.4236 11.5896 M 6.9568 16.3923 6.9568 13.822 '><!ENTITY E52 'M 31.179 5.2 C 34.9985 11.0918 34.9814 18.682 31.13552 24.557 '>
]><svg width="544.859" height="212.8252" id="SvgGdi_output" xmlns="http://www.w3.org/2000/svg" xmlns:xlink="http://www.w3.org/1999/xlink"><rect id="background" height="100.00%" style="fill:rgb(255,255,255);" width="100.00%" y="0.00" x="0.00" /><g style="shape-rendering:auto;" id="root_group"><line y1="19.00" style="&E1;" id="576" x2="480.00" y2="19.00" x1="438.00" /><line y1="179.00" style="&E1;" id="577" x2="480.00" y2="179.00" x1="438.00" /><line y1="19.00" style="&E1;" id="578" x2="400.00" y2="19.00" x1="358.00" /><line y1="179.00" style="&E1;" id="579" x2="400.00" y2="179.00" x1="358.00" /><line y1="19.00" style="&E1;" id="580" x2="320.00" y2="19.00" x1="278.00" /><line y1="179.00" style="&E1;" id="581" x2="320.00" y2="179.00" x1="278.00" /><line y1="19.00" style="&E1;" id="582" x2="240.00" y2="19.00" x1="198.00" /><line y1="99.00" style="&E1;" id="583" x2="240.00" y2="19.00" x1="198.00" /><line y1="179.00" style="&E1;" id="584" x2="240.00" y2="179.00" x1="198.00" /><line y1="19.00" style="&E1;" id="585" x2="160.00" y2="19.00" x1="118.00" /><line y1="99.00" style="&E1;" id="586" x2="160.00" y2="99.00" x1="118.00" /><line y1="179.00" style="&E1;" id="587" x2="160.00" y2="179.00" x1="118.00" /><line y1="19.00" style="&E1;" id="588" x2="80.00" y2="19.00" x1="38.00" /><path d="&E2;" style="&E3;" transform="&E4;" id="589" /><ellipse id="590" cy="15.00" cx="15.00" transform="&E4;" rx="15.00" ry="15.00" style="&E5;" /><path d="&E6;" style="&E7;" transform="&E4;" id="591" /><text id="592" transform="&E9;" x="484.00px" y="39.00px" style="stroke:none;clip-path:url(#594_text_clipper);font-family:Microsoft Sans Serif;fill:rgb(0,0,0);font-size:8.25pt;opacity:1;"><tspan dy="8.25pt" id="596">DrawMesh</tspan></text><path d="&E2;" style="&E3;" transform="&E10;" id="598" /><ellipse id="599" cy="15.00" cx="15.00" transform="&E10;" rx="15.00" ry="15.00" style="&E5;" /><path d="&E11;" style="&E12;" transform="&E10;" id="600" /><path style="&E14;" transform="&E10;" id="601" d="M 7.8593 10.494 8.8954 9.65137 13.0189 14.72177 11.9886 15.5597 " /><path style="&E14;" transform="&E10;" id="602" d="M 5.1002 16.975 7.6877 14.8707 " /><path style="&E12;" transform="&E10;" id="603" d="M 8.8501 16.342 6.484699 13.4335 10.1863 12.8393 9.518199 14.5907 z " /><text id="604" transform="&E9;" x="484.00px" y="199.00px" style="stroke:none;clip-path:url(#606_text_clipper);font-family:Microsoft Sans Serif;fill:rgb(0,0,0);font-size:8.25pt;opacity:1;"><tspan dy="8.25pt" id="608">AudioLevel</tspan></text><path d="&E2;" style="&E3;" transform="&E18;" id="610" /><ellipse id="611" cy="15.00" cx="15.00" transform="&E18;" rx="15.00" ry="15.00" style="&E5;" /><path d="&E6;" style="&E7;" transform="&E18;" id="612" /><text id="613" transform="&E9;" x="404.00px" y="39.00px" style="stroke:none;clip-path:url(#615_text_clipper);font-family:Microsoft Sans Serif;fill:rgb(0,0,0);font-size:8.25pt;opacity:1;"><tspan dy="8.25pt" id="617">Update</tspan></text><text id="619" transform="&E9;" x="404.00px" y="51.45px" style="stroke:none;clip-path:url(#621_text_clipper);font-family:Microsoft Sans Serif;fill:rgb(0,0,0);font-size:8.25pt;opacity:1;"><tspan dy="8.25pt" id="623">Uniform</tspan></text><ellipse id="625" cy="15.00" cx="15.00" transform="&E21;" rx="15.00" ry="15.00" style="&E22;" /><path d="&E23;" style="&E7;" transform="&E21;" id="626" /><text id="627" transform="&E9;" x="404.00px" y="199.00px" style="stroke:none;clip-path:url(#629_text_clipper);font-family:Microsoft Sans Serif;fill:rgb(0,0,0);font-size:8.25pt;opacity:1;"><tspan dy="8.25pt" id="631">Pow</tspan></text><ellipse id="633" cy="15.00" cx="15.00" transform="&E25;" rx="15.00" ry="15.00" style="&E22;" /><path d="&E26;" style="&E12;" transform="&E25;" id="634" /><path d="&E27;" style="&E12;" transform="&E25;" id="635" /><path d="&E28;" style="&E7;" transform="&E25;" id="636" /><text id="637" transform="&E9;" x="324.00px" y="39.00px" style="stroke:none;clip-path:url(#639_text_clipper);font-family:Microsoft Sans Serif;fill:rgb(0,0,0);font-size:8.25pt;opacity:1;"><tspan dy="8.25pt" id="641">Item2</tspan></text><ellipse id="643" cy="15.00" cx="15.00" transform="&E30;" rx="15.00" ry="15.00" style="&E22;" /><path d="&E26;" style="&E12;" transform="&E30;" id="644" /><path d="&E27;" style="&E12;" transform="&E30;" id="645" /><path d="&E28;" style="&E7;" transform="&E30;" id="646" /><text id="647" transform="&E9;" x="324.00px" y="199.00px" style="stroke:none;clip-path:url(#649_text_clipper);font-family:Microsoft Sans Serif;fill:rgb(0,0,0);font-size:8.25pt;opacity:1;"><tspan dy="8.25pt" id="651">Val0</tspan></text><ellipse id="653" cy="15.00" cx="15.00" transform="&E32;" rx="15.00" ry="15.00" style="stroke:none;opacity:1;fill:rgb(238,192,75);" /><path style="&E12;" transform="&E32;" id="654" d="M 12.246 6.0137 12.246 6.019559 C 12.05806 6.020259 11.89471 6.040434 11.76748 6.066434 10.86869 6.352735 10.89631 6.934374 9.87688 7.685534 8.863379 8.264335 8.35338 7.819914 7.61518 8.419914 6.87845 9.015514 7.39292 10.38251 7.08393 10.64841 6.77722 11.18001 5.82553 11.65471 5.65233 12.32611 5.50916 13.18481 6.04191 13.79701 6.02147 14.53311 6.08287 15.14641 5.41127 15.49489 5.5078 15.99211 5.79702 16.80421 6.35438 17.29221 6.6172 17.51751 6.663351 17.54951 6.700028 17.5985 6.714856 17.6015 6.790713 17.792 6.858586 17.98645 6.955086 18.16595 6.949606 18.13995 6.948576 18.11382 6.943367 18.08782 6.998228 18.30542 7.055077 18.52401 7.132816 18.73821 8.683116 22.09901 12.81412 24.68611 17.34182 24.11711 19.54102 23.84771 22.82442 22.33171 24.16602 18.73821 23.22044 19.58671 21.53152 20.32421 20.77732 20.38081 23.33002 19.10511 24.70712 16.93741 24.32031 13.97461 23.79154 15.23341 23.09341 16.20131 22.22071 16.86521 24.07451 13.97551 23.75691 12.48131 22.38478 10.83981 23.36615 13.53881 22.09719 16.53431 19.33208 18.66401 20.45238 18.78541 21.51657 18.51614 22.50198 17.71284 21.01318 19.37354 19.14968 20.20834 17.01368 20.43554 18.03358 21.30254 19.01818 21.69454 19.95898 21.52734 17.34458 22.24884 15.15478 21.45428 12.49018 18.80074 12.3507 19.51504 13.10514 20.62754 13.88278 21.33784 9.373278 19.38284 8.976177 13.29584 14.46872 11.79294 14.47202 11.79294 14.47518 11.79384 14.47848 11.79294 17.74978 13.70674 21.86528 13.58084 22.05078 12.34372 22.50885 10.86082 19.96508 7.805223 16.16208 7.007823 15.4618 6.871123 14.79228 6.817344 14.15428 6.835943 14.16706 6.835943 14.17858 6.836182 14.19139 6.826178 13.58399 6.177278 12.80989 6.011678 12.24609 6.013678 z M 17.17769 9.046878 C 17.72373 9.046878 18.22259 9.543848 18.22259 10.08988 18.22259 10.63598 17.72371 11.13288 17.17769 11.13288 16.63165 11.13288 16.13469 10.63601 16.13469 10.08988 16.13474 9.543879 16.63162 9.046778 17.17769 9.046878 z " /><text id="655" transform="&E9;" x="244.00px" y="39.00px" style="stroke:none;clip-path:url(#657_text_clipper);font-family:Microsoft Sans Serif;fill:rgb(0,0,0);font-size:8.25pt;opacity:1;"><tspan dy="8.25pt" id="659">WithLatest</tspan></text><text id="661" transform="&E9;" x="244.00px" y="51.45px" style="stroke:none;clip-path:url(#663_text_clipper);font-family:Microsoft Sans Serif;fill:rgb(0,0,0);font-size:8.25pt;opacity:1;"><tspan dy="8.25pt" id="665">From</tspan></text><ellipse id="667" cy="15.00" cx="15.00" transform="&E37;" rx="15.00" ry="15.00" style="&E22;" /><path d="&E23;" style="&E7;" transform="&E37;" id="668" /><text id="669" transform="&E9;" x="244.00px" y="199.00px" style="stroke:none;clip-path:url(#671_text_clipper);font-family:Microsoft Sans Serif;fill:rgb(0,0,0);font-size:8.25pt;opacity:1;"><tspan dy="8.25pt" id="673">Average</tspan></text><path d="&E2;" style="&E3;" transform="&E39;" id="675" /><ellipse id="676" cy="15.00" cx="15.00" transform="&E39;" rx="15.00" ry="15.00" style="&E5;" /><path d="&E6;" style="&E7;" transform="&E39;" id="677" /><text id="678" transform="&E9;" x="164.00px" y="39.00px" style="stroke:none;clip-path:url(#680_text_clipper);font-family:Microsoft Sans Serif;fill:rgb(0,0,0);font-size:8.25pt;opacity:1;"><tspan dy="8.25pt" id="682">Update</tspan></text><text id="684" transform="&E9;" x="164.00px" y="51.45px" style="stroke:none;clip-path:url(#686_text_clipper);font-family:Microsoft Sans Serif;fill:rgb(0,0,0);font-size:8.25pt;opacity:1;"><tspan dy="8.25pt" id="688">Uniform</tspan></text><ellipse id="690" cy="15.00" cx="15.00" transform="&E42;" rx="15.00" ry="15.00" style="&E22;" /><path style="&E12;" transform="&E42;" id="691" d="M 10.824 9.4752 3.5613 15.0588 10.824 20.6107 10.81521 18.3247 6.519011 15.0267 10.82391 11.7422 z " /><path style="&E12;" transform="&E42;" id="692" d="M 15.365 7.2336 C 15.34647 7.33547 15.32125 7.4371 15.31422 7.5375 14.41077 12.6441 13.49692 17.7495 12.59942 22.8575 12.59508 22.88635 12.6018 22.91223 12.59942 22.94062 L 14.62872 22.94062 C 14.70348 22.53324 14.73679 22.1026 14.8377 21.71462 15.68204 16.94102 16.5365 12.17012 17.3748 7.394619 17.38163 7.340435 17.37866 7.287239 17.3787 7.233579 z " /><path style="&E12;" transform="&E42;" id="693" d="M 19.044 9.4746 26.3067 15.0582 19.044 20.6101 19.05279 18.3241 23.34899 15.0261 19.04409 11.7416 z " /><text id="694" transform="&E9;" x="164.00px" y="119.00px" style="stroke:none;clip-path:url(#696_text_clipper);font-family:Microsoft Sans Serif;fill:rgb(0,0,0);font-size:8.25pt;opacity:1;"><tspan dy="8.25pt" id="698">Expression</tspan></text><text id="700" transform="&E9;" x="164.00px" y="131.45px" style="stroke:none;clip-path:url(#702_text_clipper);font-family:Microsoft Sans Serif;fill:rgb(0,0,0);font-size:8.25pt;opacity:1;"><tspan dy="8.25pt" id="704">Transform</tspan></text><ellipse id="706" cy="15.00" cx="15.00" transform="&E48;" rx="15.00" ry="15.00" style="&E22;" /><path d="&E23;" style="&E7;" transform="&E48;" id="707" /><text id="708" transform="&E9;" x="164.00px" y="199.00px" style="stroke:none;clip-path:url(#710_text_clipper);font-family:Microsoft Sans Serif;fill:rgb(0,0,0);font-size:8.25pt;opacity:1;"><tspan dy="8.25pt" id="712">Pow</tspan></text><ellipse id="714" cy="15.00" cx="15.00" transform="&E50;" rx="15.00" ry="15.00" style="&E22;" /><path d="&E6;" style="&E7;" transform="&E50;" id="715" /><text id="716" transform="&E9;" x="84.00px" y="39.00px" style="stroke:none;clip-path:url(#718_text_clipper);font-family:Microsoft Sans Serif;fill:rgb(0,0,0);font-size:8.25pt;opacity:1;"><tspan dy="8.25pt" id="720">Scale</tspan></text><path d="&E52;" style="&E3;" transform="&E53;" id="722" /><ellipse id="723" cy="15.00" cx="15.00" transform="&E53;" rx="15.00" ry="15.00" style="&E54;" /><path d="&E55;" style="&E12;" transform="&E53;" id="724" /><path d="&E11;" style="&E12;" transform="&E53;" id="725" /><text id="726" transform="&E9;" x="84.00px" y="119.00px" style="stroke:none;clip-path:url(#728_text_clipper);font-family:Microsoft Sans Serif;fill:rgb(0,0,0);font-size:8.25pt;opacity:1;"><tspan dy="8.25pt" id="730">AudioLevel</tspan></text><path d="&E52;" style="&E3;" transform="&E57;" id="732" /><ellipse id="733" cy="15.00" cx="15.00" transform="&E57;" rx="15.00" ry="15.00" style="&E54;" /><path style="&E12;" transform="&E57;" id="734" d="M 15.262 7.0869 C 15.0337 7.0969 14.80894 7.1829 14.63699 7.3336 L 10.40169 10.9932 6.50359 10.9932 C 5.98053 10.9932 5.50289 11.4652 5.50029 11.9883 L 5.50029 17.0131 C 5.4986 17.5389 5.97781 18.0181 6.50359 18.0164 L 10.34409 18.0164 14.63699 21.7336 C 15.21304 22.23 16.28929 21.7336 16.28999 20.977 L 16.28999 8.089999 C 16.29189 7.555899 15.79594 7.071799 15.26199 7.086699 z " /><path style="&E12;" transform="&E57;" id="735" d="M 19.242 11.136 C 19.85996 12.1101 20.22442 13.2733 20.22442 14.515 20.22442 15.7378 19.86821 16.8827 19.26739 17.847 18.57312 19.02 16.82469 17.93 17.57209 16.7903 17.98656 16.1252 18.22639 15.3523 18.22639 14.515 18.22639 13.663 17.98027 12.8775 17.55451 12.2064 17.11611 11.5347 17.60803 10.6463 18.40998 10.6614 18.75002 10.6714 19.06352 10.8465 19.24201 11.136 z " /><path style="&E12;" transform="&E57;" id="736" d="M 21.92 7.5284 C 23.4568 9.4572 24.379 11.9073 24.379 14.5636 24.379 17.2016 23.46877 19.6367 21.9493 21.5597 21.12371 22.6053 19.5553 21.367 20.3809 20.3214 21.6336 18.736 22.3809 16.743 22.3809 14.5636 22.3809 12.3686 21.62445 10.3628 20.3575 8.7726 19.81921 8.1166 20.29216 7.1306 21.1407 7.1398 21.44622 7.1398 21.73332 7.2865 21.92 7.5284 z " /><text id="737" transform="&E9;" x="84.00px" y="199.00px" style="stroke:none;clip-path:url(#739_text_clipper);font-family:Microsoft Sans Serif;fill:rgb(0,0,0);font-size:8.25pt;opacity:1;"><tspan dy="8.25pt" id="741">AudioCapture</tspan></text><path d="&E52;" style="&E3;" transform="&E62;" id="743" /><ellipse id="744" cy="15.00" cx="15.00" transform="&E62;" rx="15.00" ry="15.00" style="&E54;" /><path d="&E55;" style="&E12;" transform="&E62;" id="745" /><path d="&E11;" style="&E12;" transform="&E62;" id="746" /><text id="747" transform="&E9;" x="4.00px" y="39.00px" style="stroke:none;clip-path:url(#749_text_clipper);font-family:Microsoft Sans Serif;fill:rgb(0,0,0);font-size:8.25pt;opacity:1;"><tspan dy="8.25pt" id="751">DrawCall</tspan></text></g><defs id="clips_hatches_and_gradients"><clipPath id="594_text_clipper"><rect x="484.00" y="39.00" width="57.80" height="13.83" id="595" /></clipPath><clipPath id="606_text_clipper"><rect x="484.00" y="199.00" width="59.86" height="13.83" id="607" /></clipPath><clipPath id="615_text_clipper"><rect x="404.00" y="39.00" width="43.39" height="27.65" id="616" /></clipPath><clipPath id="621_text_clipper"><rect x="404.00" y="51.45" width="43.39" height="27.65" id="622" /></clipPath><clipPath id="629_text_clipper"><rect x="404.00" y="199.00" width="25.70" height="13.83" id="630" /></clipPath><clipPath id="639_text_clipper"><rect x="324.00" y="39.00" width="32.00" height="13.83" id="640" /></clipPath><clipPath id="649_text_clipper"><rect x="324.00" y="199.00" width="26.41" height="13.83" id="650" /></clipPath><clipPath id="657_text_clipper"><rect x="244.00" y="39.00" width="57.25" height="27.65" id="658" /></clipPath><clipPath id="663_text_clipper"><rect x="244.00" y="51.45" width="57.25" height="27.65" id="664" /></clipPath><clipPath id="671_text_clipper"><rect x="244.00" y="199.00" width="45.86" height="13.83" id="672" /></clipPath><clipPath id="680_text_clipper"><rect x="164.00" y="39.00" width="43.39" height="27.65" id="681" /></clipPath><clipPath id="686_text_clipper"><rect x="164.00" y="51.45" width="43.39" height="27.65" id="687" /></clipPath><clipPath id="696_text_clipper"><rect x="164.00" y="119.00" width="59.78" height="27.65" id="697" /></clipPath><clipPath id="702_text_clipper"><rect x="164.00" y="131.45" width="59.78" height="27.65" id="703" /></clipPath><clipPath id="710_text_clipper"><rect x="164.00" y="199.00" width="25.70" height="13.83" id="711" /></clipPath><clipPath id="718_text_clipper"><rect x="84.00" y="39.00" width="32.07" height="13.83" id="719" /></clipPath><clipPath id="728_text_clipper"><rect x="84.00" y="119.00" width="59.86" height="13.83" id="729" /></clipPath><clipPath id="739_text_clipper"><rect x="84.00" y="199.00" width="73.01" height="13.83" id="740" /></clipPath><clipPath id="749_text_clipper"><rect x="4.00" y="39.00" width="49.75" height="13.83" id="750" /></clipPath></defs></svg>