<?xml version="1.0" standalone="yes"?><!DOCTYPE svg PUBLIC "-//W3C//DTD SVG 1.1//EN" "http://www.w3.org/Graphics/SVG/1.1/DTD/svg11.dtd"[
<!ENTITY E12 'stroke:none;opacity:1;fill:rgb(68,154,223);'><!ENTITY E11 'matrix(1.00 0.00 0.00 1.00 244.00 4.00 ) '><!ENTITY E9 'matrix(1.00 0.00 0.00 1.00 0.00 0.00 ) '><!ENTITY E17 'stroke:none;fill-rule:evenodd;opacity:1;fill:rgb(255,255,255);'><!ENTITY E3 'stroke:rgb(169,169,169);fill:none;stroke-linecap:butt;stroke-miterlimit:9;opacity:1;stroke-width:2;stroke-linejoin:miter;'><!ENTITY E7 'stroke:rgb(255,255,255);fill:none;stroke-linecap:butt;stroke-miterlimit:9;opacity:1;stroke-width:2;stroke-linejoin:miter;'><!ENTITY E21 'matrix(1.00 0.00 0.00 1.00 84.00 4.00 ) '><!ENTITY E26 'matrix(1.00 0.00 0.00 1.00 4.00 4.00 ) '><!ENTITY E15 'matrix(1.00 0.00 0.00 1.00 164.00 4.00 ) '><!ENTITY E4 'matrix(1.00 0.00 0.00 1.00 324.00 4.00 ) '><!ENTITY E6 'M 15.011 14.916 15.15146 23.9388 M 23.14376 10.5618 15.01096 14.9158 6.97086 10.5618 M 6.924747 10.5618 15.15145 5.893101 23.14375 10.5618 23.14375 19.2433 15.15145 23.9386 6.924747 19.2433 z '><!ENTITY E1 'stroke:rgb(169,169,169);fill:none;stroke-linecap:butt;stroke-miterlimit:9;opacity:1;stroke-width:1;stroke-linejoin:miter;'>
]><svg width="368.3859" height="80.47558" id="SvgGdi_output" xmlns="http://www.w3.org/2000/svg" xmlns:xlink="http://www.w3.org/1999/xlink"><rect id="background" height="100.00%" style="fill:rgb(255,255,255);" width="100.00%" y="0.00" x="0.00" /><g style="shape-rendering:auto;" id="root_group"><line y1="19.00" style="&E1;" id="325" x2="320.00" y2="19.00" x1="278.00" /><line y1="19.00" style="&E1;" id="326" x2="240.00" y2="19.00" x1="198.00" /><line y1="19.00" style="&E1;" id="327" x2="160.00" y2="19.00" x1="118.00" /><line y1="19.00" style="&E1;" id="328" x2="80.00" y2="19.00" x1="38.00" /><path style="&E3;" transform="&E4;" id="329" d="M 10.158 33.2 C 3.4054 31.7591 -1.861 26.4692 -3.271 19.71 " /><ellipse id="330" cy="15.00" cx="15.00" transform="&E4;" rx="15.00" ry="15.00" style="stroke:none;opacity:1;fill:rgb(155,91,179);" /><path d="&E6;" style="&E7;" transform="&E4;" id="331" /><text id="332" transform="&E9;" x="324.00px" y="39.00px" style="stroke:none;clip-path:url(#334_text_clipper);font-family:Microsoft Sans Serif;fill:rgb(0,0,0);font-size:8.25pt;opacity:1;"><tspan dy="8.25pt" id="336">Update</tspan></text><text id="338" transform="&E9;" x="324.00px" y="51.45px" style="stroke:none;clip-path:url(#340_text_clipper);font-family:Microsoft Sans Serif;fill:rgb(0,0,0);font-size:8.25pt;opacity:1;"><tspan dy="8.25pt" id="342">Uniform</tspan></text><ellipse id="344" cy="15.00" cx="15.00" transform="&E11;" rx="15.00" ry="15.00" style="&E12;" /><path style="&E7;" transform="&E11;" id="345" d="M 20.824 23.115 20.824 7.098999 M 17.3572 17.48 17.3572 12.7339 M 13.8904 21.2046 13.8904 9.009602 M 10.4236 18.6248 10.4236 11.5896 M 6.9568 16.3923 6.9568 13.822 " /><text id="346" transform="&E9;" x="244.00px" y="39.00px" style="stroke:none;clip-path:url(#348_text_clipper);font-family:Microsoft Sans Serif;fill:rgb(0,0,0);font-size:8.25pt;opacity:1;"><tspan dy="8.25pt" id="350">Rescale</tspan></text><ellipse id="352" cy="15.00" cx="15.00" transform="&E15;" rx="15.00" ry="15.00" style="&E12;" /><path style="&E17;" transform="&E15;" id="353" d="M 19.156 13.888 19.156 10.3647 19.156 6.841399 25.2585 10.3647 22.2072 12.1264 z " /><path style="&E17;" transform="&E15;" id="354" d="M 19.156 22.97 19.156 19.4467 19.156 15.9234 25.2585 19.4467 22.2072 21.2084 z " /><path style="&E7;" transform="&E15;" id="355" d="M 5.5001 19.484 10.6493 19.484 16.2743 10.2485 19.3728 10.2485 M 14.6769 17.1481 16.3089 19.4828 19.2202 19.4828 M 5.500199 10.2437 10.7586 10.2437 12.1652 12.8707 " /><text id="356" transform="&E9;" x="164.00px" y="39.00px" style="stroke:none;clip-path:url(#358_text_clipper);font-family:Microsoft Sans Serif;fill:rgb(0,0,0);font-size:8.25pt;opacity:1;"><tspan dy="8.25pt" id="360">X</tspan></text><ellipse id="362" cy="15.00" cx="15.00" transform="&E21;" rx="15.00" ry="15.00" style="&E12;" /><path d="&E6;" style="&E7;" transform="&E21;" id="363" /><text id="364" transform="&E9;" x="84.00px" y="39.00px" style="stroke:none;clip-path:url(#366_text_clipper);font-family:Microsoft Sans Serif;fill:rgb(0,0,0);font-size:8.25pt;opacity:1;"><tspan dy="8.25pt" id="368">Normalized</tspan></text><text id="370" transform="&E9;" x="84.00px" y="51.45px" style="stroke:none;clip-path:url(#372_text_clipper);font-family:Microsoft Sans Serif;fill:rgb(0,0,0);font-size:8.25pt;opacity:1;"><tspan dy="8.25pt" id="374">Device</tspan></text><text id="376" transform="&E9;" x="84.00px" y="63.90px" style="stroke:none;clip-path:url(#378_text_clipper);font-family:Microsoft Sans Serif;fill:rgb(0,0,0);font-size:8.25pt;opacity:1;"><tspan dy="8.25pt" id="380">Coordinates</tspan></text><path style="&E3;" transform="&E26;" id="382" d="M 31.179 5.2 C 34.9985 11.0918 34.9814 18.682 31.13552 24.557 " /><ellipse id="383" cy="15.00" cx="15.00" transform="&E26;" rx="15.00" ry="15.00" style="stroke:none;opacity:1;fill:rgb(91,178,126);" /><path d="&E6;" style="&E7;" transform="&E26;" id="384" /><text id="385" transform="&E9;" x="4.00px" y="39.00px" style="stroke:none;clip-path:url(#387_text_clipper);font-family:Microsoft Sans Serif;fill:rgb(0,0,0);font-size:8.25pt;opacity:1;"><tspan dy="8.25pt" id="389">MouseMove</tspan></text></g><defs id="clips_hatches_and_gradients"><clipPath id="334_text_clipper"><rect x="324.00" y="39.00" width="43.39" height="27.65" id="335" /></clipPath><clipPath id="340_text_clipper"><rect x="324.00" y="51.45" width="43.39" height="27.65" id="341" /></clipPath><clipPath id="348_text_clipper"><rect x="244.00" y="39.00" width="44.66" height="13.83" id="349" /></clipPath><clipPath id="358_text_clipper"><rect x="164.00" y="39.00" width="11.22" height="13.83" id="359" /></clipPath><clipPath id="366_text_clipper"><rect x="84.00" y="39.00" width="64.82" height="41.48" id="367" /></clipPath><clipPath id="372_text_clipper"><rect x="84.00" y="51.45" width="64.82" height="41.48" id="373" /></clipPath><clipPath id="378_text_clipper"><rect x="84.00" y="63.90" width="64.82" height="41.48" id="379" /></clipPath><clipPath id="387_text_clipper"><rect x="4.00" y="39.00" width="65.38" height="13.83" id="388" /></clipPath></defs></svg>